<svg xmlns="http://www.w3.org/2000/svg" width="506" height="146" viewBox="0 0 506 146" role="img" aria-label="STZF">
<g fill="#8b949e">
<rect x="19" y="10" width="9" height="18" fill-opacity="0.25"/>
<rect x="28" y="10" width="9" height="18" fill-opacity="0.5"/>
<rect x="37" y="10" width="9" height="18" fill-opacity="0.75"/>
<rect x="46" y="10" width="9" height="18" fill-opacity="1.0"/>
<rect x="55" y="10" width="9" height="18" fill-opacity="1.0"/>
<rect x="64" y="10" width="9" height="18" fill-opacity="1.0"/>
<rect x="73" y="10" width="9" height="18" fill-opacity="1.0"/>
<rect x="82" y="10" width="9" height="18" fill-opacity="1.0"/>
<rect x="91" y="10" width="9" height="18" fill-opacity="1.0"/>
<rect x="100" y="10" width="9" height="18" fill-opacity="1.0"/>
<rect x="109" y="10" width="9" height="18" fill-opacity="0.75"/>
<rect x="118" y="10" width="9" height="18" fill-opacity="0.5"/>
<rect x="127" y="10" width="9" height="18" fill-opacity="0.25"/>
<rect x="136" y="10" width="9" height="18" fill-opacity="0.5"/>
<rect x="145" y="10" width="9" height="18" fill-opacity="0.75"/>
<rect x="154" y="10" width="9" height="18" fill-opacity="1.0"/>
<rect x="163" y="10" width="9" height="18" fill-opacity="1.0"/>
<rect x="172" y="10" width="9" height="18" fill-opacity="1.0"/>
<rect x="181" y="10" width="9" height="18" fill-opacity="1.0"/>
<rect x="190" y="10" width="9" height="18" fill-opacity="1.0"/>
<rect x="199" y="10" width="9" height="18" fill-opacity="1.0"/>
<rect x="208" y="10" width="9" height="18" fill-opacity="1.0"/>
<rect x="217" y="10" width="9" height="18" fill-opacity="1.0"/>
<rect x="226" y="10" width="9" height="18" fill-opacity="0.75"/>
<rect x="235" y="10" width="9" height="18" fill-opacity="0.5"/>
<rect x="244" y="10" width="9" height="18" fill-opacity="0.25"/>
<rect x="253" y="10" width="9" height="18" fill-opacity="0.5"/>
<rect x="262" y="10" width="9" height="18" fill-opacity="0.75"/>
<rect x="271" y="10" width="9" height="18" fill-opacity="1.0"/>
<rect x="280" y="10" width="9" height="18" fill-opacity="1.0"/>
<rect x="289" y="10" width="9" height="18" fill-opacity="1.0"/>
<rect x="298" y="10" width="9" height="18" fill-opacity="1.0"/>
<rect x="307" y="10" width="9" height="18" fill-opacity="1.0"/>
<rect x="316" y="10" width="9" height="18" fill-opacity="1.0"/>
<rect x="325" y="10" width="9" height="18" fill-opacity="1.0"/>
<rect x="334" y="10" width="9" height="18" fill-opacity="1.0"/>
<rect x="343" y="10" width="9" height="18" fill-opacity="0.75"/>
<rect x="352" y="10" width="9" height="18" fill-opacity="0.5"/>
<rect x="361" y="10" width="9" height="18" fill-opacity="0.25"/>
<rect x="370" y="10" width="9" height="18" fill-opacity="0.5"/>
<rect x="379" y="10" width="9" height="18" fill-opacity="0.75"/>
<rect x="388" y="10" width="9" height="18" fill-opacity="1.0"/>
<rect x="397" y="10" width="9" height="18" fill-opacity="1.0"/>
<rect x="406" y="10" width="9" height="18" fill-opacity="1.0"/>
<rect x="415" y="10" width="9" height="18" fill-opacity="1.0"/>
<rect x="424" y="10" width="9" height="18" fill-opacity="1.0"/>
<rect x="433" y="10" width="9" height="18" fill-opacity="1.0"/>
<rect x="442" y="10" width="9" height="18" fill-opacity="1.0"/>
<rect x="451" y="10" width="9" height="18" fill-opacity="1.0"/>
<rect x="460" y="10" width="9" height="18" fill-opacity="0.75"/>
<rect x="469" y="10" width="9" height="18" fill-opacity="0.5"/>
<rect x="478" y="10" width="9" height="18" fill-opacity="0.25"/>
<rect x="10" y="28" width="9" height="18" fill-opacity="0.25"/>
<rect x="19" y="28" width="9" height="18" fill-opacity="0.5"/>
<rect x="28" y="28" width="9" height="18" fill-opacity="0.75"/>
<rect x="37" y="28" width="9" height="18" fill-opacity="1.0"/>
<rect x="46" y="28" width="9" height="18" fill-opacity="0.75"/>
<rect x="55" y="28" width="9" height="18" fill-opacity="0.5"/>
<rect x="64" y="28" width="9" height="18" fill-opacity="0.25"/>
<rect x="154" y="28" width="9" height="18" fill-opacity="0.25"/>
<rect x="163" y="28" width="9" height="18" fill-opacity="0.5"/>
<rect x="172" y="28" width="9" height="18" fill-opacity="0.75"/>
<rect x="181" y="28" width="9" height="18" fill-opacity="1.0"/>
<rect x="190" y="28" width="9" height="18" fill-opacity="0.75"/>
<rect x="199" y="28" width="9" height="18" fill-opacity="0.5"/>
<rect x="208" y="28" width="9" height="18" fill-opacity="0.25"/>
<rect x="307" y="28" width="9" height="18" fill-opacity="0.25"/>
<rect x="316" y="28" width="9" height="18" fill-opacity="0.5"/>
<rect x="325" y="28" width="9" height="18" fill-opacity="0.75"/>
<rect x="334" y="28" width="9" height="18" fill-opacity="1.0"/>
<rect x="343" y="28" width="9" height="18" fill-opacity="0.75"/>
<rect x="352" y="28" width="9" height="18" fill-opacity="0.5"/>
<rect x="361" y="28" width="9" height="18" fill-opacity="0.25"/>
<rect x="370" y="28" width="9" height="18" fill-opacity="0.5"/>
<rect x="379" y="28" width="9" height="18" fill-opacity="0.75"/>
<rect x="388" y="28" width="9" height="18" fill-opacity="1.0"/>
<rect x="397" y="28" width="9" height="18" fill-opacity="0.75"/>
<rect x="406" y="28" width="9" height="18" fill-opacity="0.5"/>
<rect x="415" y="28" width="9" height="18" fill-opacity="0.25"/>
<rect x="10" y="46" width="9" height="18" fill-opacity="0.25"/>
<rect x="19" y="46" width="9" height="18" fill-opacity="0.5"/>
<rect x="28" y="46" width="9" height="18" fill-opacity="0.75"/>
<rect x="37" y="46" width="9" height="18" fill-opacity="1.0"/>
<rect x="46" y="46" width="9" height="18" fill-opacity="0.75"/>
<rect x="55" y="46" width="9" height="18" fill-opacity="0.5"/>
<rect x="64" y="46" width="9" height="18" fill-opacity="0.25"/>
<rect x="154" y="46" width="9" height="18" fill-opacity="0.25"/>
<rect x="163" y="46" width="9" height="18" fill-opacity="0.5"/>
<rect x="172" y="46" width="9" height="18" fill-opacity="0.75"/>
<rect x="181" y="46" width="9" height="18" fill-opacity="1.0"/>
<rect x="190" y="46" width="9" height="18" fill-opacity="0.75"/>
<rect x="199" y="46" width="9" height="18" fill-opacity="0.5"/>
<rect x="208" y="46" width="9" height="18" fill-opacity="0.25"/>
<rect x="289" y="46" width="9" height="18" fill-opacity="0.25"/>
<rect x="298" y="46" width="9" height="18" fill-opacity="0.5"/>
<rect x="307" y="46" width="9" height="18" fill-opacity="0.75"/>
<rect x="316" y="46" width="9" height="18" fill-opacity="1.0"/>
<rect x="325" y="46" width="9" height="18" fill-opacity="1.0"/>
<rect x="334" y="46" width="9" height="18" fill-opacity="0.75"/>
<rect x="343" y="46" width="9" height="18" fill-opacity="0.5"/>
<rect x="352" y="46" width="9" height="18" fill-opacity="0.25"/>
<rect x="361" y="46" width="9" height="18" fill-opacity="0.25"/>
<rect x="370" y="46" width="9" height="18" fill-opacity="0.5"/>
<rect x="379" y="46" width="9" height="18" fill-opacity="0.75"/>
<rect x="388" y="46" width="9" height="18" fill-opacity="1.0"/>
<rect x="397" y="46" width="9" height="18" fill-opacity="0.75"/>
<rect x="406" y="46" width="9" height="18" fill-opacity="0.5"/>
<rect x="415" y="46" width="9" height="18" fill-opacity="0.25"/>
<rect x="19" y="64" width="9" height="18" fill-opacity="0.25"/>
<rect x="28" y="64" width="9" height="18" fill-opacity="0.5"/>
<rect x="37" y="64" width="9" height="18" fill-opacity="0.75"/>
<rect x="46" y="64" width="9" height="18" fill-opacity="1.0"/>
<rect x="55" y="64" width="9" height="18" fill-opacity="1.0"/>
<rect x="64" y="64" width="9" height="18" fill-opacity="1.0"/>
<rect x="73" y="64" width="9" height="18" fill-opacity="1.0"/>
<rect x="82" y="64" width="9" height="18" fill-opacity="1.0"/>
<rect x="91" y="64" width="9" height="18" fill-opacity="1.0"/>
<rect x="100" y="64" width="9" height="18" fill-opacity="0.75"/>
<rect x="109" y="64" width="9" height="18" fill-opacity="0.5"/>
<rect x="118" y="64" width="9" height="18" fill-opacity="0.25"/>
<rect x="154" y="64" width="9" height="18" fill-opacity="0.25"/>
<rect x="163" y="64" width="9" height="18" fill-opacity="0.5"/>
<rect x="172" y="64" width="9" height="18" fill-opacity="0.75"/>
<rect x="181" y="64" width="9" height="18" fill-opacity="1.0"/>
<rect x="190" y="64" width="9" height="18" fill-opacity="0.75"/>
<rect x="199" y="64" width="9" height="18" fill-opacity="0.5"/>
<rect x="208" y="64" width="9" height="18" fill-opacity="0.25"/>
<rect x="271" y="64" width="9" height="18" fill-opacity="0.25"/>
<rect x="280" y="64" width="9" height="18" fill-opacity="0.5"/>
<rect x="289" y="64" width="9" height="18" fill-opacity="0.75"/>
<rect x="298" y="64" width="9" height="18" fill-opacity="1.0"/>
<rect x="307" y="64" width="9" height="18" fill-opacity="1.0"/>
<rect x="316" y="64" width="9" height="18" fill-opacity="0.75"/>
<rect x="325" y="64" width="9" height="18" fill-opacity="0.5"/>
<rect x="334" y="64" width="9" height="18" fill-opacity="0.25"/>
<rect x="361" y="64" width="9" height="18" fill-opacity="0.25"/>
<rect x="370" y="64" width="9" height="18" fill-opacity="0.5"/>
<rect x="379" y="64" width="9" height="18" fill-opacity="0.75"/>
<rect x="388" y="64" width="9" height="18" fill-opacity="1.0"/>
<rect x="397" y="64" width="9" height="18" fill-opacity="1.0"/>
<rect x="406" y="64" width="9" height="18" fill-opacity="1.0"/>
<rect x="415" y="64" width="9" height="18" fill-opacity="1.0"/>
<rect x="424" y="64" width="9" height="18" fill-opacity="1.0"/>
<rect x="433" y="64" width="9" height="18" fill-opacity="1.0"/>
<rect x="442" y="64" width="9" height="18" fill-opacity="0.75"/>
<rect x="451" y="64" width="9" height="18" fill-opacity="0.5"/>
<rect x="460" y="64" width="9" height="18" fill-opacity="0.25"/>
<rect x="73" y="82" width="9" height="18" fill-opacity="0.25"/>
<rect x="82" y="82" width="9" height="18" fill-opacity="0.5"/>
<rect x="91" y="82" width="9" height="18" fill-opacity="0.75"/>
<rect x="100" y="82" width="9" height="18" fill-opacity="1.0"/>
<rect x="109" y="82" width="9" height="18" fill-opacity="0.75"/>
<rect x="118" y="82" width="9" height="18" fill-opacity="0.5"/>
<rect x="127" y="82" width="9" height="18" fill-opacity="0.25"/>
<rect x="154" y="82" width="9" height="18" fill-opacity="0.25"/>
<rect x="163" y="82" width="9" height="18" fill-opacity="0.5"/>
<rect x="172" y="82" width="9" height="18" fill-opacity="0.75"/>
<rect x="181" y="82" width="9" height="18" fill-opacity="1.0"/>
<rect x="190" y="82" width="9" height="18" fill-opacity="0.75"/>
<rect x="199" y="82" width="9" height="18" fill-opacity="0.5"/>
<rect x="208" y="82" width="9" height="18" fill-opacity="0.25"/>
<rect x="253" y="82" width="9" height="18" fill-opacity="0.25"/>
<rect x="262" y="82" width="9" height="18" fill-opacity="0.5"/>
<rect x="271" y="82" width="9" height="18" fill-opacity="0.75"/>
<rect x="280" y="82" width="9" height="18" fill-opacity="1.0"/>
<rect x="289" y="82" width="9" height="18" fill-opacity="1.0"/>
<rect x="298" y="82" width="9" height="18" fill-opacity="0.75"/>
<rect x="307" y="82" width="9" height="18" fill-opacity="0.5"/>
<rect x="316" y="82" width="9" height="18" fill-opacity="0.25"/>
<rect x="361" y="82" width="9" height="18" fill-opacity="0.25"/>
<rect x="370" y="82" width="9" height="18" fill-opacity="0.5"/>
<rect x="379" y="82" width="9" height="18" fill-opacity="0.75"/>
<rect x="388" y="82" width="9" height="18" fill-opacity="1.0"/>
<rect x="397" y="82" width="9" height="18" fill-opacity="0.75"/>
<rect x="406" y="82" width="9" height="18" fill-opacity="0.5"/>
<rect x="415" y="82" width="9" height="18" fill-opacity="0.25"/>
<rect x="73" y="100" width="9" height="18" fill-opacity="0.25"/>
<rect x="82" y="100" width="9" height="18" fill-opacity="0.5"/>
<rect x="91" y="100" width="9" height="18" fill-opacity="0.75"/>
<rect x="100" y="100" width="9" height="18" fill-opacity="1.0"/>
<rect x="109" y="100" width="9" height="18" fill-opacity="0.75"/>
<rect x="118" y="100" width="9" height="18" fill-opacity="0.5"/>
<rect x="127" y="100" width="9" height="18" fill-opacity="0.25"/>
<rect x="154" y="100" width="9" height="18" fill-opacity="0.25"/>
<rect x="163" y="100" width="9" height="18" fill-opacity="0.5"/>
<rect x="172" y="100" width="9" height="18" fill-opacity="0.75"/>
<rect x="181" y="100" width="9" height="18" fill-opacity="1.0"/>
<rect x="190" y="100" width="9" height="18" fill-opacity="0.75"/>
<rect x="199" y="100" width="9" height="18" fill-opacity="0.5"/>
<rect x="208" y="100" width="9" height="18" fill-opacity="0.25"/>
<rect x="244" y="100" width="9" height="18" fill-opacity="0.25"/>
<rect x="253" y="100" width="9" height="18" fill-opacity="0.5"/>
<rect x="262" y="100" width="9" height="18" fill-opacity="0.75"/>
<rect x="271" y="100" width="9" height="18" fill-opacity="1.0"/>
<rect x="280" y="100" width="9" height="18" fill-opacity="0.75"/>
<rect x="289" y="100" width="9" height="18" fill-opacity="0.5"/>
<rect x="298" y="100" width="9" height="18" fill-opacity="0.25"/>
<rect x="361" y="100" width="9" height="18" fill-opacity="0.25"/>
<rect x="370" y="100" width="9" height="18" fill-opacity="0.5"/>
<rect x="379" y="100" width="9" height="18" fill-opacity="0.75"/>
<rect x="388" y="100" width="9" height="18" fill-opacity="1.0"/>
<rect x="397" y="100" width="9" height="18" fill-opacity="0.75"/>
<rect x="406" y="100" width="9" height="18" fill-opacity="0.5"/>
<rect x="415" y="100" width="9" height="18" fill-opacity="0.25"/>
<rect x="10" y="118" width="9" height="18" fill-opacity="0.25"/>
<rect x="19" y="118" width="9" height="18" fill-opacity="0.5"/>
<rect x="28" y="118" width="9" height="18" fill-opacity="0.75"/>
<rect x="37" y="118" width="9" height="18" fill-opacity="1.0"/>
<rect x="46" y="118" width="9" height="18" fill-opacity="1.0"/>
<rect x="55" y="118" width="9" height="18" fill-opacity="1.0"/>
<rect x="64" y="118" width="9" height="18" fill-opacity="1.0"/>
<rect x="73" y="118" width="9" height="18" fill-opacity="1.0"/>
<rect x="82" y="118" width="9" height="18" fill-opacity="1.0"/>
<rect x="91" y="118" width="9" height="18" fill-opacity="1.0"/>
<rect x="100" y="118" width="9" height="18" fill-opacity="0.75"/>
<rect x="109" y="118" width="9" height="18" fill-opacity="0.5"/>
<rect x="118" y="118" width="9" height="18" fill-opacity="0.25"/>
<rect x="154" y="118" width="9" height="18" fill-opacity="0.25"/>
<rect x="163" y="118" width="9" height="18" fill-opacity="0.5"/>
<rect x="172" y="118" width="9" height="18" fill-opacity="0.75"/>
<rect x="181" y="118" width="9" height="18" fill-opacity="1.0"/>
<rect x="190" y="118" width="9" height="18" fill-opacity="0.75"/>
<rect x="199" y="118" width="9" height="18" fill-opacity="0.5"/>
<rect x="208" y="118" width="9" height="18" fill-opacity="0.25"/>
<rect x="244" y="118" width="9" height="18" fill-opacity="0.25"/>
<rect x="253" y="118" width="9" height="18" fill-opacity="0.5"/>
<rect x="262" y="118" width="9" height="18" fill-opacity="0.75"/>
<rect x="271" y="118" width="9" height="18" fill-opacity="1.0"/>
<rect x="280" y="118" width="9" height="18" fill-opacity="1.0"/>
<rect x="289" y="118" width="9" height="18" fill-opacity="1.0"/>
<rect x="298" y="118" width="9" height="18" fill-opacity="1.0"/>
<rect x="307" y="118" width="9" height="18" fill-opacity="1.0"/>
<rect x="316" y="118" width="9" height="18" fill-opacity="1.0"/>
<rect x="325" y="118" width="9" height="18" fill-opacity="1.0"/>
<rect x="334" y="118" width="9" height="18" fill-opacity="1.0"/>
<rect x="343" y="118" width="9" height="18" fill-opacity="0.75"/>
<rect x="352" y="118" width="9" height="18" fill-opacity="0.5"/>
<rect x="361" y="118" width="9" height="18" fill-opacity="0.25"/>
<rect x="370" y="118" width="9" height="18" fill-opacity="0.5"/>
<rect x="379" y="118" width="9" height="18" fill-opacity="0.75"/>
<rect x="388" y="118" width="9" height="18" fill-opacity="1.0"/>
<rect x="397" y="118" width="9" height="18" fill-opacity="0.75"/>
<rect x="406" y="118" width="9" height="18" fill-opacity="0.5"/>
<rect x="415" y="118" width="9" height="18" fill-opacity="0.25"/>
</g>
</svg>
